<svg version="1.2" xmlns="http://www.w3.org/2000/svg" viewBox="0 0 512 512" width="512" height="512">
	<title>logo-codepen-svg</title>
	<style>
		.s0 { fill: #333333 } 
	</style>
	<path id="Layer" class="s0" d="m241.2 303.9c-15.3-10.3-30.7-20.5-46-30.9-2-1.4-3.4-1.5-5.5 0l-38.9 26.1c31.2 20.8 93.2 62.2 93.2 62.2v-53.8c0-1.2-1.6-2.7-2.8-3.6zm-46.1-63.2q23.2-15.3 46.1-30.9 0.6-0.5 1.1-1.1 0.5-0.6 0.9-1.3 0.3-0.7 0.5-1.4 0.2-0.8 0.3-1.5v-51.7c0 0-62 41.1-93.3 61.9 13.7 9.2 26.7 17.9 39.8 26.4 1 0.7 3.4 0.3 4.6-0.4zm74.7-31.3q23.7 16 47.7 31.8 0.4 0.2 0.9 0.3 0.5 0.1 1 0.1 0.5 0 1-0.1 0.5-0.1 0.9-0.3l39.8-26.5-93.1-62.2v53.3q0 0.5 0.2 1 0.1 0.5 0.3 1 0.3 0.4 0.6 0.8 0.3 0.4 0.7 0.8zm-11.7 21q-0.6-0.3-1.2-0.4-0.6-0.1-1.2-0.1-0.6 0-1.2 0.2-0.6 0.1-1.1 0.4c-4.8 3-9.5 6.2-14.2 9.4-8.2 5.5-25.3 17-25.3 17l38.8 25.9q0.7 0.4 1.5 0.6 0.8 0.2 1.6 0.3 0.8 0 1.6-0.2 0.8-0.2 1.6-0.6l39-26c0 0-34.1-22.7-39.9-26.5zm-117.1 6.7v39.6l29.6-19.8z"/>
	<path id="Layer" fill-rule="evenodd" class="s0" d="m480 256c0 123.7-100.3 224-224 224-123.7 0-224-100.3-224-224 0-123.7 100.3-224 224-224 123.7 0 224 100.3 224 224zm-85-39.6c0-5.8-2.8-9.6-7.5-12.7q-61.7-41-123.2-82.2c-5.9-3.9-11.2-3.8-17 0.1-40.8 27.3-81.8 54.6-122.7 81.7-5.1 3.4-7.6 7.6-7.6 13.7v79.7c0 6.2 2.5 10.4 7.6 13.8q61.4 40.6 122.6 81.6c5.8 3.9 11.1 4.1 17 0.2q61.6-41.2 123.3-82.2c4.9-3.2 7.5-7.3 7.5-13.1z"/>
	<path id="Layer" class="s0" d="m316.3 273.2q-22.6 15.4-45.4 30.4c-2.5 1.5-2.9 3.3-2.9 6.2v51.3l93-62-38.5-25.9c-2.3-1.6-3.9-1.5-6.3 0zm53.8 3.5v-39.6l-29.6 19.8z"/>
</svg>